<svg width="385" height="51" viewBox="0 0 385 51" fill="none" xmlns="http://www.w3.org/2000/svg">
<path d="M48.6328 0.313843H52.1653L52.9324 7.24615H53.0231L54.2424 0.313843H57.3346L58.5766 7.24615H58.6672L59.4117 0.313843H62.8989L60.9805 16.4467H57.0412L55.7992 9.01829H55.7086L54.4893 16.4467H50.55L48.6328 0.313843Z" fill="white"/>
<path d="M64.4381 15.6794C63.4669 14.754 63.1055 13.1524 63.1055 10.2199V6.56595C63.1055 3.63227 63.4669 2.00921 64.4381 1.08379C65.093 0.474391 66.0629 0.0462646 67.6198 0.0462646C69.1767 0.0462646 70.149 0.475584 70.7789 1.08379C71.7727 2.03187 72.133 3.63346 72.133 6.56595V10.2199C72.133 13.1536 71.7488 14.7326 70.7789 15.6794C70.1466 16.3115 69.154 16.717 67.6198 16.717C66.0856 16.717 65.0918 16.3103 64.4381 15.6794ZM68.4561 10.9176V5.81822C68.4561 4.28341 68.4561 3.31267 67.621 3.31267C66.7859 3.31267 66.7859 4.28341 66.7859 5.81822V10.9176C66.7859 12.4524 66.7859 13.4446 67.621 13.4446C68.4561 13.4446 68.4561 12.4512 68.4561 10.9176Z" fill="white"/>
<path d="M76.7574 10.4267V14.7986L76.78 16.4455H73.0781L73.1008 14.7986V1.96076L73.0781 0.313843H77.163C80.9544 0.313843 81.9028 2.61547 81.9028 5.36788V5.4132C81.9028 6.99333 81.5187 8.36954 80.4808 9.24845L82.1963 16.4455H78.3823L77.1403 10.4267H76.7562H76.7574ZM76.7574 7.26285H77.0055C78.0673 7.26285 78.3381 6.4054 78.3381 5.34522V5.27725C78.3381 4.21707 78.0673 3.33696 77.0055 3.33696H76.7574V7.26166V7.26285Z" fill="white"/>
<path d="M82.918 16.4479L82.9406 14.801V1.96076L82.918 0.313843H86.6199L86.5972 1.96076V13.3317H89.4414V16.4455H82.918V16.4479Z" fill="white"/>
<path d="M98.1349 1.37402C98.8578 2.07405 99.3315 3.24752 99.3315 5.63859V11.1208C99.3315 13.513 98.8578 14.6853 98.1349 15.3853C97.3677 16.1307 96.1712 16.4455 94.9531 16.4455H90.2812L90.3039 14.7986V1.96076L90.2812 0.313843H94.9531C96.1724 0.313843 97.3689 0.629869 98.1349 1.37402ZM93.9605 3.33816V13.4236H94.3673C95.6319 13.4236 95.6319 12.2501 95.6319 11.1899V5.57181C95.6319 4.6917 95.6319 3.33816 94.3673 3.33816H93.9605Z" fill="white"/>
<path d="M117.365 3.36295L117.374 14.7113L117.398 16.3582L113.696 16.3618L113.718 14.7149L113.708 3.36533L111.428 3.36772L111.426 0.232497L119.619 0.225342L119.622 3.36056L117.365 3.36295Z" fill="white"/>
<path d="M122.217 16.4285L118.719 16.4309L121.141 0.296884L126.129 0.292114L128.604 16.4214L125.083 16.4238L124.742 13.5807L122.529 13.5831L122.215 16.4274H122.217V16.4285ZM122.911 10.4038H124.378L123.991 7.06462C123.877 6.20718 123.763 5.05636 123.695 4.35633H123.604C123.537 5.05636 123.403 6.20718 123.29 7.06462L122.91 10.4038H122.911Z" fill="white"/>
<path d="M129.394 14.7759L129.383 1.93807L129.359 0.289964L133.083 0.286386L134.735 5.15797L135.452 7.16622H135.52C135.497 6.55683 135.459 6.08339 135.458 5.42868L135.456 1.93211L135.432 0.284001L138.998 0.281616L138.976 1.92853L138.987 14.7664L139.011 16.4133L135.806 16.4157L133.634 10.4839C133.386 9.73975 133.133 9.02303 132.997 8.63903H132.929C132.952 9.24842 132.91 9.53583 132.911 10.2132L132.915 14.7699L132.938 16.4169L129.372 16.4192L129.393 14.7723V14.7759H129.394Z" fill="white"/>
<path d="M149.625 0.272827L147.215 6.32146L149.775 16.4045L145.961 16.4081L144.443 10.1817L143.857 11.6271L143.859 14.7623L143.883 16.4093L140.181 16.4128L140.203 14.7659L140.192 1.92809L140.168 0.281175L143.87 0.277597L143.848 1.92451L143.851 4.15816C143.851 4.67692 143.829 5.42227 143.808 5.89571H143.899L145.768 0.276405L149.627 0.272827H149.625Z" fill="white"/>
<path d="M152.668 11.2126C152.826 12.522 153.144 13.4236 153.956 13.4236C154.386 13.4236 154.723 13.1064 154.723 12.4755C154.723 11.7087 154.226 11.0313 153.231 10.243L151.762 9.00279C150.046 7.58246 149.683 5.89142 149.704 4.56053C149.725 1.62685 151.641 -0.0212589 154.191 0.000207095C156.765 0.0204805 158.3 1.68886 158.484 5.09479L155.211 5.09718C155.075 4.05966 154.849 3.27019 154.148 3.27019C153.675 3.27019 153.359 3.65419 153.359 4.28624C153.359 5.00774 153.789 5.45971 154.647 6.20387L156.138 7.44412C157.923 8.90977 158.579 10.6676 158.58 12.2477C158.583 15.024 156.598 16.6936 154.003 16.6733C151.203 16.653 149.533 14.7592 149.461 11.2174L152.665 11.215L152.668 11.2126Z" fill="white"/>
<path d="M101.418 15.7655C100.729 15.1096 100.473 13.9731 100.473 11.8933V9.2995C100.473 7.21849 100.729 6.06768 101.418 5.41058C101.883 4.97888 102.57 4.67358 103.676 4.67358C104.782 4.67358 105.47 4.97769 105.918 5.41058C106.623 6.08318 106.878 7.21969 106.878 9.2995V11.8933C106.878 13.9743 106.606 15.0941 105.918 15.7655C105.469 16.2139 104.765 16.5025 103.676 16.5025C102.587 16.5025 101.882 16.2139 101.418 15.7655ZM104.268 12.3882V8.7712C104.268 7.6824 104.268 6.99429 103.675 6.99429C103.082 6.99429 103.082 7.6824 103.082 8.7712V12.3882C103.082 13.477 103.082 14.1806 103.675 14.1806C104.268 14.1806 104.268 13.4758 104.268 12.3882Z" fill="white"/>
<path d="M110.329 11.6679V15.1406L110.345 16.3093H107.719L107.734 15.1406V6.0343L107.719 4.8656H112.345V7.0909H110.328V9.41161H112.382V11.6691H110.328L110.329 11.6679Z" fill="white"/>
<path d="M105.218 27.9103V43.3491C105.218 47.9845 102.717 50.4448 97.9988 50.4448H88.4416C83.7232 50.4448 81.2227 47.9857 81.2227 43.3491V27.9103C81.2227 23.2748 83.7232 20.8158 88.4416 20.8158H97.9988C102.717 20.8158 105.218 23.2748 105.218 27.9103ZM95.5376 27.6682H90.9004C89.6907 27.6682 89.2874 28.0713 89.2874 29.2412V42.0194C89.2874 43.1881 89.6907 43.5924 90.9004 43.5924H95.5376C96.7473 43.5924 97.1506 43.1893 97.1506 42.0194V29.2412C97.1506 28.0713 96.7473 27.6682 95.5376 27.6682Z" fill="white"/>
<path d="M133.293 28.3137V42.9476C133.293 47.583 130.793 50.042 126.075 50.042H109.984V21.2192H126.075C130.793 21.2192 133.293 23.6783 133.293 28.3149M123.616 28.0716H118.05V43.1896H123.616C124.825 43.1896 125.229 42.7866 125.229 41.6167V29.6446C125.229 28.4747 124.825 28.0716 123.616 28.0716Z" fill="white"/>
<path d="M146.128 28.0716V31.9009H156.936V38.7545H146.128V43.1884H158.63V50.042H138.062V21.2192H158.63V28.0728H146.128V28.0716Z" fill="white"/>
<path d="M163.404 21.218H179.494C184.212 21.218 186.713 23.6783 186.713 28.3137V33.0708C186.713 36.2955 185.503 38.4731 183.165 39.4808L190.06 50.042H180.664L174.252 40.1665H171.468V50.042H163.402V21.2192L163.404 21.218ZM177.035 33.3117C178.245 33.3117 178.648 32.9086 178.648 31.7387V29.6422C178.648 28.4723 178.245 28.0692 177.035 28.0692H171.469V33.3093H177.035V33.3117Z" fill="white"/>
<path d="M193.637 21.218H201.42L210.776 36.6175V21.218H218.842V50.0408H211.058L201.703 34.6414V50.0408H193.637V21.218Z" fill="white"/>
<path d="M241.964 21.218H253.78L262.571 50.0408H254.305L252.691 44.3571H243.093L241.439 50.0408H233.172L241.964 21.218ZM250.716 37.5035L247.892 27.628L245.028 37.5035H250.716Z" fill="white"/>
<path d="M266.402 21.218H282.493C287.211 21.218 289.711 23.6783 289.711 28.3137V33.0708C289.711 36.2955 288.502 38.4731 286.163 39.4808L293.059 50.042H283.664L277.252 40.1665H274.468V50.042H266.402V21.2192V21.218ZM280.033 33.3117C281.242 33.3117 281.645 32.9086 281.645 31.7387V29.6422C281.645 28.4723 281.242 28.0692 280.033 28.0692H274.467V33.3093H280.033V33.3117Z" fill="white"/>
<path d="M352.913 27.9103V43.3491C352.913 47.9845 350.412 50.4448 345.694 50.4448H336.137C331.419 50.4448 328.918 47.9857 328.918 43.3491V27.9103C328.918 23.2748 331.419 20.8158 336.137 20.8158H345.694C350.412 20.8158 352.913 23.2748 352.913 27.9103ZM343.235 27.6682H338.598C337.388 27.6682 336.984 28.0713 336.984 29.2412V42.0194C336.984 43.1881 337.387 43.5924 338.598 43.5924H343.235C344.445 43.5924 344.848 43.1893 344.848 42.0194V29.2412C344.848 28.0713 344.445 27.6682 343.235 27.6682Z" fill="white"/>
<path d="M357.68 21.218H373.77C378.488 21.218 380.989 23.6783 380.989 28.3137V33.0708C380.989 36.2955 379.779 38.4731 377.441 39.4808L384.336 50.042H374.941L368.529 40.1665H365.746V50.042H357.68V21.2192V21.218ZM371.311 33.3117C372.521 33.3117 372.924 32.9086 372.924 31.7387V29.6422C372.924 28.4723 372.521 28.0692 371.311 28.0692H365.746V33.3093H371.311V33.3117Z" fill="white"/>
<path d="M76.4527 21.218V50.0408H68.3867V32.973L62.5422 38.4182L56.6976 32.973V50.0408H48.6328V21.218H56.6546L62.5624 26.668L68.4309 21.218H76.4527Z" fill="white"/>
<path d="M324.106 21.218V50.0408H316.04V32.973L310.196 38.4182L304.351 32.973V50.0408H296.285V21.218H304.307L310.215 26.668L316.083 21.218H324.106Z" fill="white"/>
<g opacity="0.99">
<path fill-rule="evenodd" clip-rule="evenodd" d="M38.0113 29.6865L21.0634 45.3709L4.14527 29.6853L4.09636 3.76754L38.0424 3.76993L38.0101 29.6865H38.0113ZM0.664062 0.342529L0.72252 31.1819L21.061 50.0398L41.4377 31.1831L41.4758 0.344914L0.664062 0.342529Z" fill="white"/>
<path d="M28.4277 7.19983H13.7501L7.52734 13.9485H17.6811V37.5622L21.0657 40.6998L24.4586 37.561V13.9485H34.6135L28.4265 7.19983H28.4277Z" fill="white"/>
<path d="M14.3248 17.3368H7.56641V28.1926L13.1783 33.3933L17.5388 28.5993L14.3248 25.3889V17.3368Z" fill="white"/>
<path d="M27.8273 25.3888L24.6133 28.5992L28.963 33.3933L34.5881 28.1925V17.3391H27.8273V25.3888Z" fill="white"/>
</g>
</svg>
