<svg width="26" height="30" viewBox="0 0 26 30" fill="none" xmlns="http://www.w3.org/2000/svg">
<g opacity="0.99">
<path fill-rule="evenodd" clip-rule="evenodd" d="M23.0819 17.4511L13.0028 26.7788L2.9414 17.4504L2.91231 2.03689L23.1003 2.0383L23.0811 17.4511H23.0819ZM0.871094 0L0.905859 18.3405L13.0013 29.5554L25.1195 18.3412L25.1422 0.00141846L0.871094 0Z" fill="white"/>
<path d="M17.3828 4.07812H8.65385L4.95312 8.09161H10.9916V22.1349L13.0045 24.0009L15.0223 22.1342V8.09161H21.0615L17.3821 4.07812H17.3828Z" fill="white"/>
<path d="M8.99586 10.1074H4.97656V16.5635L8.31403 19.6564L10.9072 16.8053L8.99586 14.8961V10.1074Z" fill="white"/>
<path d="M17.0247 14.8947L15.1133 16.8039L17.7001 19.655L21.0454 16.5621V10.1074H17.0247V14.8947Z" fill="white"/>
</g>
</svg>
